# Blender 4.3.0
# www.blender.org
mtllib normal_tetrapod.mtl
o Cylinder.001
v 0.000000 -0.148973 -0.260451
v 0.000000 0.464620 -0.147659
v 0.130225 -0.148973 -0.225557
v 0.073830 0.464620 -0.127876
v 0.225557 -0.148973 -0.130225
v 0.127876 0.464620 -0.073829
v 0.260451 -0.148973 0.000000
v 0.147659 0.464620 0.000000
v 0.225557 -0.148973 0.130225
v 0.127876 0.464620 0.073830
v 0.130225 -0.148973 0.225557
v 0.073830 0.464620 0.127876
v 0.000000 -0.148973 0.260451
v 0.000000 0.464620 0.147659
v -0.130225 -0.148973 0.225557
v -0.073829 0.464620 0.127876
v -0.225557 -0.148973 0.130225
v -0.127876 0.464620 0.073830
v -0.260451 -0.148973 0.000000
v -0.147659 0.464620 0.000000
v -0.225557 -0.148973 -0.130225
v -0.127876 0.464620 -0.073829
v -0.130225 -0.148973 -0.225557
v -0.073829 0.464620 -0.127876
v 0.000000 0.500186 -0.112638
v 0.056319 0.500186 -0.097548
v 0.097548 0.500186 -0.056319
v 0.112638 0.500186 0.000000
v 0.097548 0.500186 0.056319
v 0.056319 0.500186 0.097548
v 0.000000 0.500186 0.112638
v -0.056319 0.500186 0.097548
v -0.097548 0.500186 0.056319
v -0.112638 0.500186 0.000000
v -0.097548 0.500186 -0.056319
v -0.056319 0.500186 -0.097548
vn -0.0000 0.1808 -0.9835
vn 0.4918 0.1808 -0.8518
vn 0.8518 0.1808 -0.4918
vn 0.9835 0.1808 -0.0000
vn 0.8518 0.1808 0.4918
vn 0.4918 0.1808 0.8518
vn -0.0000 0.1808 0.9835
vn -0.4918 0.1808 0.8518
vn -0.8518 0.1808 0.4918
vn -0.9835 0.1808 -0.0000
vn -0.8518 0.1808 -0.4918
vn -0.3563 0.7016 -0.6171
vn -0.6171 0.7016 -0.3563
vn -0.4918 0.1808 -0.8518
vn -0.0000 -1.0000 -0.0000
vn -0.0000 1.0000 -0.0000
vn 0.6171 0.7016 -0.3563
vn 0.3563 0.7016 -0.6171
vn -0.7125 0.7016 -0.0000
vn -0.6171 0.7016 0.3563
vn -0.3563 0.7016 0.6171
vn -0.0000 0.7016 0.7125
vn 0.3563 0.7016 0.6171
vn 0.6171 0.7016 0.3563
vn 0.7125 0.7016 -0.0000
vn -0.0000 0.7016 -0.7125
vt 1.000000 0.500000
vt 1.000000 1.000000
vt 0.916667 1.000000
vt 0.916667 0.500000
vt 0.833333 1.000000
vt 0.833333 0.500000
vt 0.750000 1.000000
vt 0.750000 0.500000
vt 0.666667 1.000000
vt 0.666667 0.500000
vt 0.583333 1.000000
vt 0.583333 0.500000
vt 0.500000 1.000000
vt 0.500000 0.500000
vt 0.416667 1.000000
vt 0.416667 0.500000
vt 0.333333 1.000000
vt 0.333333 0.500000
vt 0.250000 1.000000
vt 0.250000 0.500000
vt 0.166667 1.000000
vt 0.166667 0.500000
vt 0.083333 1.000000
vt 0.083333 0.500000
vt 0.000000 1.000000
vt 0.000000 0.500000
vt 0.750000 0.490000
vt 0.870000 0.457846
vt 0.957846 0.370000
vt 0.990000 0.250000
vt 0.957846 0.130000
vt 0.870000 0.042154
vt 0.750000 0.010000
vt 0.630000 0.042154
vt 0.542154 0.130000
vt 0.510000 0.250000
vt 0.542154 0.370000
vt 0.630000 0.457846
vt 0.370000 0.457846
vt 0.250000 0.490000
vt 0.130000 0.457846
vt 0.042154 0.370000
vt 0.010000 0.250000
vt 0.042154 0.130000
vt 0.130000 0.042154
vt 0.250000 0.010000
vt 0.370000 0.042154
vt 0.457846 0.130000
vt 0.490000 0.250000
vt 0.457846 0.370000
s 1
usemtl Concrete
f 1/1/1 2/2/1 4/3/2 3/4/2
f 3/4/2 4/3/2 6/5/3 5/6/3
f 5/6/3 6/5/3 8/7/4 7/8/4
f 7/8/4 8/7/4 10/9/5 9/10/5
f 9/10/5 10/9/5 12/11/6 11/12/6
f 11/12/6 12/11/6 14/13/7 13/14/7
f 13/14/7 14/13/7 16/15/8 15/16/8
f 15/16/8 16/15/8 18/17/9 17/18/9
f 17/18/9 18/17/9 20/19/10 19/20/10
f 19/20/10 20/19/10 22/21/11 21/22/11
f 24/23/12 22/21/13 35/21/13 36/23/12
f 21/22/11 22/21/11 24/23/14 23/24/14
f 23/24/14 24/23/14 2/25/1 1/26/1
f 1/27/15 3/28/15 5/29/15 7/30/15 9/31/15 11/32/15 13/33/15 15/34/15 17/35/15 19/36/15 21/37/15 23/38/15
f 26/39/16 25/40/16 36/41/16 35/42/16 34/43/16 33/44/16 32/45/16 31/46/16 30/47/16 29/48/16 28/49/16 27/50/16
f 6/5/17 4/3/18 26/3/18 27/5/17
f 22/21/13 20/19/19 34/19/19 35/21/13
f 20/19/19 18/17/20 33/17/20 34/19/19
f 18/17/20 16/15/21 32/15/21 33/17/20
f 16/15/21 14/13/22 31/13/22 32/15/21
f 14/13/22 12/11/23 30/11/23 31/13/22
f 12/11/23 10/9/24 29/9/24 30/11/23
f 10/9/24 8/7/25 28/7/25 29/9/24
f 2/25/26 24/23/12 36/23/12 25/25/26
f 4/3/18 2/2/26 25/2/26 26/3/18
f 8/7/25 6/5/17 27/5/17 28/7/25
o Cylinder.002
v 0.000000 0.095771 0.089079
v 0.000000 -0.220080 0.627091
v 0.130225 0.062981 0.077145
v 0.073830 -0.238669 0.620325
v 0.225557 -0.026601 0.044540
v 0.127876 -0.289457 0.601840
v 0.260451 -0.148973 -0.000000
v 0.147659 -0.358834 0.576589
v 0.225557 -0.271344 -0.044540
v 0.127876 -0.428211 0.551338
v 0.130225 -0.360927 -0.077145
v 0.073830 -0.478998 0.532852
v 0.000000 -0.393716 -0.089079
v 0.000000 -0.497588 0.526086
v -0.130225 -0.360927 -0.077145
v -0.073829 -0.478998 0.532852
v -0.225557 -0.271344 -0.044540
v -0.127876 -0.428211 0.551338
v -0.260451 -0.148973 -0.000000
v -0.147659 -0.358834 0.576589
v -0.225557 -0.026601 0.044540
v -0.127876 -0.289457 0.601840
v -0.130225 0.062981 0.077145
v -0.073829 -0.238669 0.620325
v 0.000000 -0.265153 0.648535
v 0.056319 -0.279333 0.643373
v 0.097548 -0.318075 0.629272
v 0.112638 -0.370998 0.610010
v 0.097548 -0.423921 0.590748
v 0.056319 -0.462663 0.576647
v 0.000000 -0.476844 0.571485
v -0.056319 -0.462663 0.576647
v -0.097548 -0.423921 0.590748
v -0.112638 -0.370998 0.610010
v -0.097548 -0.318075 0.629272
v -0.056319 -0.279333 0.643373
vn -0.0000 0.8624 0.5063
vn 0.4918 0.7386 0.4612
vn 0.8518 0.4003 0.3381
vn 0.9835 -0.0618 0.1699
vn 0.8518 -0.5239 0.0017
vn 0.4918 -0.8622 -0.1214
vn -0.0000 -0.9860 -0.1665
vn -0.4918 -0.8622 -0.1214
vn -0.8518 -0.5239 0.0017
vn -0.9835 -0.0618 0.1699
vn -0.8518 0.4003 0.3381
vn -0.3563 0.3399 0.8704
vn -0.6171 0.0948 0.7812
vn -0.4918 0.7386 0.4612
vn -0.0000 0.3420 -0.9397
vn -0.0000 -0.3420 0.9397
vn 0.6171 0.0948 0.7812
vn 0.3563 0.3399 0.8704
vn -0.7125 -0.2400 0.6593
vn -0.6171 -0.5748 0.5375
vn -0.3563 -0.8198 0.4483
vn -0.0000 -0.9095 0.4156
vn 0.3563 -0.8198 0.4483
vn 0.6171 -0.5748 0.5375
vn 0.7125 -0.2400 0.6593
vn -0.0000 0.4296 0.9030
vt 1.000000 0.500000
vt 1.000000 1.000000
vt 0.916667 1.000000
vt 0.916667 0.500000
vt 0.833333 1.000000
vt 0.833333 0.500000
vt 0.750000 1.000000
vt 0.750000 0.500000
vt 0.666667 1.000000
vt 0.666667 0.500000
vt 0.583333 1.000000
vt 0.583333 0.500000
vt 0.500000 1.000000
vt 0.500000 0.500000
vt 0.416667 1.000000
vt 0.416667 0.500000
vt 0.333333 1.000000
vt 0.333333 0.500000
vt 0.250000 1.000000
vt 0.250000 0.500000
vt 0.166667 1.000000
vt 0.166667 0.500000
vt 0.083333 1.000000
vt 0.083333 0.500000
vt 0.000000 1.000000
vt 0.000000 0.500000
vt 0.750000 0.490000
vt 0.870000 0.457846
vt 0.957846 0.370000
vt 0.990000 0.250000
vt 0.957846 0.130000
vt 0.870000 0.042154
vt 0.750000 0.010000
vt 0.630000 0.042154
vt 0.542154 0.130000
vt 0.510000 0.250000
vt 0.542154 0.370000
vt 0.630000 0.457846
vt 0.370000 0.457846
vt 0.250000 0.490000
vt 0.130000 0.457846
vt 0.042154 0.370000
vt 0.010000 0.250000
vt 0.042154 0.130000
vt 0.130000 0.042154
vt 0.250000 0.010000
vt 0.370000 0.042154
vt 0.457846 0.130000
vt 0.490000 0.250000
vt 0.457846 0.370000
s 1
usemtl Concrete
f 37/51/27 38/52/27 40/53/28 39/54/28
f 39/54/28 40/53/28 42/55/29 41/56/29
f 41/56/29 42/55/29 44/57/30 43/58/30
f 43/58/30 44/57/30 46/59/31 45/60/31
f 45/60/31 46/59/31 48/61/32 47/62/32
f 47/62/32 48/61/32 50/63/33 49/64/33
f 49/64/33 50/63/33 52/65/34 51/66/34
f 51/66/34 52/65/34 54/67/35 53/68/35
f 53/68/35 54/67/35 56/69/36 55/70/36
f 55/70/36 56/69/36 58/71/37 57/72/37
f 60/73/38 58/71/39 71/71/39 72/73/38
f 57/72/37 58/71/37 60/73/40 59/74/40
f 59/74/40 60/73/40 38/75/27 37/76/27
f 37/77/41 39/78/41 41/79/41 43/80/41 45/81/41 47/82/41 49/83/41 51/84/41 53/85/41 55/86/41 57/87/41 59/88/41
f 62/89/42 61/90/42 72/91/42 71/92/42 70/93/42 69/94/42 68/95/42 67/96/42 66/97/42 65/98/42 64/99/42 63/100/42
f 42/55/43 40/53/44 62/53/44 63/55/43
f 58/71/39 56/69/45 70/69/45 71/71/39
f 56/69/45 54/67/46 69/67/46 70/69/45
f 54/67/46 52/65/47 68/65/47 69/67/46
f 52/65/47 50/63/48 67/63/48 68/65/47
f 50/63/48 48/61/49 66/61/49 67/63/48
f 48/61/49 46/59/50 65/59/50 66/61/49
f 46/59/50 44/57/51 64/57/51 65/59/50
f 38/75/52 60/73/38 72/73/38 61/75/52
f 40/53/44 38/52/52 61/52/52 62/53/44
f 44/57/51 42/55/43 63/55/43 64/57/51
o Cylinder.003
v 0.077145 0.095771 -0.044540
v 0.543077 -0.220080 -0.313546
v 0.001697 0.062981 -0.151351
v 0.500303 -0.238669 -0.374101
v -0.074206 -0.026601 -0.217608
v 0.457270 -0.289457 -0.411664
v -0.130225 -0.148973 -0.225557
v 0.425511 -0.358834 -0.416171
v -0.151351 -0.271344 -0.173068
v 0.413534 -0.428211 -0.386413
v -0.131922 -0.360927 -0.074206
v 0.424549 -0.478998 -0.330364
v -0.077145 -0.393716 0.044540
v 0.455604 -0.497588 -0.263043
v -0.001697 -0.360927 0.151351
v 0.498379 -0.478998 -0.202488
v 0.074206 -0.271344 0.217608
v 0.541411 -0.428211 -0.164925
v 0.130225 -0.148973 0.225557
v 0.573170 -0.358834 -0.160418
v 0.151351 -0.026601 0.173068
v 0.585147 -0.289457 -0.190176
v 0.131922 0.062981 0.074206
v 0.574132 -0.238669 -0.246224
v 0.561647 -0.265153 -0.324267
v 0.529018 -0.279333 -0.370461
v 0.496192 -0.318075 -0.399115
v 0.471965 -0.370998 -0.402553
v 0.462829 -0.423921 -0.379853
v 0.471231 -0.462663 -0.337097
v 0.494921 -0.476844 -0.285743
v 0.527550 -0.462663 -0.239550
v 0.560376 -0.423921 -0.210895
v 0.584603 -0.370998 -0.207457
v 0.593740 -0.318075 -0.230157
v 0.585337 -0.279333 -0.272913
vn 0.4384 0.8624 -0.2531
vn 0.1535 0.7386 -0.6565
vn -0.1331 0.4003 -0.9067
vn -0.3446 -0.0618 -0.9367
vn -0.4244 -0.5239 -0.7385
vn -0.3510 -0.8622 -0.3652
vn -0.1442 -0.9860 0.0832
vn 0.1407 -0.8622 0.4866
vn 0.4273 -0.5239 0.7368
vn 0.6389 -0.0618 0.7668
vn 0.7187 0.4003 0.5686
vn 0.9319 0.3399 -0.1266
vn 0.9850 0.0948 0.1438
vn 0.6453 0.7386 0.1953
vn -0.8138 0.3420 0.4698
vn 0.8138 -0.3420 -0.4698
vn 0.3680 0.0948 -0.9250
vn 0.5756 0.3399 -0.7437
vn 0.9273 -0.2400 0.2874
vn 0.7740 -0.5748 0.2657
vn 0.5663 -0.8198 0.0844
vn 0.3599 -0.9095 -0.2078
vn 0.2101 -0.8198 -0.5327
vn 0.1569 -0.5748 -0.8031
vn 0.2147 -0.2400 -0.9467
vn 0.7820 0.4296 -0.4515
vt 1.000000 0.500000
vt 1.000000 1.000000
vt 0.916667 1.000000
vt 0.916667 0.500000
vt 0.833333 1.000000
vt 0.833333 0.500000
vt 0.750000 1.000000
vt 0.750000 0.500000
vt 0.666667 1.000000
vt 0.666667 0.500000
vt 0.583333 1.000000
vt 0.583333 0.500000
vt 0.500000 1.000000
vt 0.500000 0.500000
vt 0.416667 1.000000
vt 0.416667 0.500000
vt 0.333333 1.000000
vt 0.333333 0.500000
vt 0.250000 1.000000
vt 0.250000 0.500000
vt 0.166667 1.000000
vt 0.166667 0.500000
vt 0.083333 1.000000
vt 0.083333 0.500000
vt 0.000000 1.000000
vt 0.000000 0.500000
vt 0.750000 0.490000
vt 0.870000 0.457846
vt 0.957846 0.370000
vt 0.990000 0.250000
vt 0.957846 0.130000
vt 0.870000 0.042154
vt 0.750000 0.010000
vt 0.630000 0.042154
vt 0.542154 0.130000
vt 0.510000 0.250000
vt 0.542154 0.370000
vt 0.630000 0.457846
vt 0.370000 0.457846
vt 0.250000 0.490000
vt 0.130000 0.457846
vt 0.042154 0.370000
vt 0.010000 0.250000
vt 0.042154 0.130000
vt 0.130000 0.042154
vt 0.250000 0.010000
vt 0.370000 0.042154
vt 0.457846 0.130000
vt 0.490000 0.250000
vt 0.457846 0.370000
s 1
usemtl Concrete
f 73/101/53 74/102/53 76/103/54 75/104/54
f 75/104/54 76/103/54 78/105/55 77/106/55
f 77/106/55 78/105/55 80/107/56 79/108/56
f 79/108/56 80/107/56 82/109/57 81/110/57
f 81/110/57 82/109/57 84/111/58 83/112/58
f 83/112/58 84/111/58 86/113/59 85/114/59
f 85/114/59 86/113/59 88/115/60 87/116/60
f 87/116/60 88/115/60 90/117/61 89/118/61
f 89/118/61 90/117/61 92/119/62 91/120/62
f 91/120/62 92/119/62 94/121/63 93/122/63
f 96/123/64 94/121/65 107/121/65 108/123/64
f 93/122/63 94/121/63 96/123/66 95/124/66
f 95/124/66 96/123/66 74/125/53 73/126/53
f 73/127/67 75/128/67 77/129/67 79/130/67 81/131/67 83/132/67 85/133/67 87/134/67 89/135/67 91/136/67 93/137/67 95/138/67
f 98/139/68 97/140/68 108/141/68 107/142/68 106/143/68 105/144/68 104/145/68 103/146/68 102/147/68 101/148/68 100/149/68 99/150/68
f 78/105/69 76/103/70 98/103/70 99/105/69
f 94/121/65 92/119/71 106/119/71 107/121/65
f 92/119/71 90/117/72 105/117/72 106/119/71
f 90/117/72 88/115/73 104/115/73 105/117/72
f 88/115/73 86/113/74 103/113/74 104/115/73
f 86/113/74 84/111/75 102/111/75 103/113/74
f 84/111/75 82/109/76 101/109/76 102/111/75
f 82/109/76 80/107/77 100/107/77 101/109/76
f 74/125/78 96/123/64 108/123/64 97/125/78
f 76/103/70 74/102/78 97/102/78 98/103/70
f 80/107/77 78/105/69 99/105/69 100/107/77
o Cylinder.004
v -0.077145 0.095771 -0.044540
v -0.543077 -0.220080 -0.313546
v -0.131922 0.062981 0.074206
v -0.574132 -0.238669 -0.246224
v -0.151351 -0.026601 0.173068
v -0.585147 -0.289457 -0.190176
v -0.130225 -0.148973 0.225557
v -0.573170 -0.358834 -0.160418
v -0.074206 -0.271344 0.217608
v -0.541411 -0.428211 -0.164925
v 0.001697 -0.360927 0.151351
v -0.498379 -0.478998 -0.202488
v 0.077145 -0.393716 0.044540
v -0.455604 -0.497588 -0.263043
v 0.131922 -0.360927 -0.074206
v -0.424549 -0.478998 -0.330364
v 0.151351 -0.271344 -0.173068
v -0.413534 -0.428211 -0.386413
v 0.130225 -0.148973 -0.225557
v -0.425511 -0.358834 -0.416171
v 0.074206 -0.026601 -0.217608
v -0.457270 -0.289457 -0.411664
v -0.001697 0.062981 -0.151351
v -0.500303 -0.238669 -0.374101
v -0.561647 -0.265153 -0.324267
v -0.585337 -0.279333 -0.272913
v -0.593740 -0.318075 -0.230157
v -0.584603 -0.370998 -0.207457
v -0.560376 -0.423921 -0.210895
v -0.527550 -0.462663 -0.239550
v -0.494921 -0.476844 -0.285743
v -0.471231 -0.462663 -0.337097
v -0.462829 -0.423921 -0.379853
v -0.471965 -0.370998 -0.402553
v -0.496192 -0.318075 -0.399115
v -0.529018 -0.279333 -0.370460
vn -0.4384 0.8624 -0.2531
vn -0.6453 0.7386 0.1953
vn -0.7187 0.4003 0.5686
vn -0.6389 -0.0618 0.7668
vn -0.4273 -0.5239 0.7368
vn -0.1407 -0.8622 0.4866
vn 0.1442 -0.9860 0.0832
vn 0.3510 -0.8622 -0.3652
vn 0.4244 -0.5239 -0.7385
vn 0.3446 -0.0618 -0.9367
vn 0.1331 0.4003 -0.9067
vn -0.5756 0.3399 -0.7437
vn -0.3680 0.0948 -0.9250
vn -0.1535 0.7386 -0.6565
vn 0.8138 0.3420 0.4698
vn -0.8138 -0.3420 -0.4698
vn -0.9850 0.0948 0.1438
vn -0.9319 0.3399 -0.1266
vn -0.2147 -0.2400 -0.9467
vn -0.1569 -0.5748 -0.8031
vn -0.2101 -0.8198 -0.5327
vn -0.3599 -0.9095 -0.2078
vn -0.5663 -0.8198 0.0844
vn -0.7740 -0.5748 0.2657
vn -0.9273 -0.2400 0.2874
vn -0.7820 0.4296 -0.4515
vt 1.000000 0.500000
vt 1.000000 1.000000
vt 0.916667 1.000000
vt 0.916667 0.500000
vt 0.833333 1.000000
vt 0.833333 0.500000
vt 0.750000 1.000000
vt 0.750000 0.500000
vt 0.666667 1.000000
vt 0.666667 0.500000
vt 0.583333 1.000000
vt 0.583333 0.500000
vt 0.500000 1.000000
vt 0.500000 0.500000
vt 0.416667 1.000000
vt 0.416667 0.500000
vt 0.333333 1.000000
vt 0.333333 0.500000
vt 0.250000 1.000000
vt 0.250000 0.500000
vt 0.166667 1.000000
vt 0.166667 0.500000
vt 0.083333 1.000000
vt 0.083333 0.500000
vt 0.000000 1.000000
vt 0.000000 0.500000
vt 0.750000 0.490000
vt 0.870000 0.457846
vt 0.957846 0.370000
vt 0.990000 0.250000
vt 0.957846 0.130000
vt 0.870000 0.042154
vt 0.750000 0.010000
vt 0.630000 0.042154
vt 0.542154 0.130000
vt 0.510000 0.250000
vt 0.542154 0.370000
vt 0.630000 0.457846
vt 0.370000 0.457846
vt 0.250000 0.490000
vt 0.130000 0.457846
vt 0.042154 0.370000
vt 0.010000 0.250000
vt 0.042154 0.130000
vt 0.130000 0.042154
vt 0.250000 0.010000
vt 0.370000 0.042154
vt 0.457846 0.130000
vt 0.490000 0.250000
vt 0.457846 0.370000
s 1
usemtl Concrete
f 109/151/79 110/152/79 112/153/80 111/154/80
f 111/154/80 112/153/80 114/155/81 113/156/81
f 113/156/81 114/155/81 116/157/82 115/158/82
f 115/158/82 116/157/82 118/159/83 117/160/83
f 117/160/83 118/159/83 120/161/84 119/162/84
f 119/162/84 120/161/84 122/163/85 121/164/85
f 121/164/85 122/163/85 124/165/86 123/166/86
f 123/166/86 124/165/86 126/167/87 125/168/87
f 125/168/87 126/167/87 128/169/88 127/170/88
f 127/170/88 128/169/88 130/171/89 129/172/89
f 132/173/90 130/171/91 143/171/91 144/173/90
f 129/172/89 130/171/89 132/173/92 131/174/92
f 131/174/92 132/173/92 110/175/79 109/176/79
f 109/177/93 111/178/93 113/179/93 115/180/93 117/181/93 119/182/93 121/183/93 123/184/93 125/185/93 127/186/93 129/187/93 131/188/93
f 134/189/94 133/190/94 144/191/94 143/192/94 142/193/94 141/194/94 140/195/94 139/196/94 138/197/94 137/198/94 136/199/94 135/200/94
f 114/155/95 112/153/96 134/153/96 135/155/95
f 130/171/91 128/169/97 142/169/97 143/171/91
f 128/169/97 126/167/98 141/167/98 142/169/97
f 126/167/98 124/165/99 140/165/99 141/167/98
f 124/165/99 122/163/100 139/163/100 140/165/99
f 122/163/100 120/161/101 138/161/101 139/163/100
f 120/161/101 118/159/102 137/159/102 138/161/101
f 118/159/102 116/157/103 136/157/103 137/159/102
f 110/175/104 132/173/90 144/173/90 133/175/104
f 112/153/96 110/152/104 133/152/104 134/153/96
f 116/157/103 114/155/95 135/155/95 136/157/103
