# Blender 4.3.0
# www.blender.org
mtllib roulette_base.mtl
o Cylinder
v 0.000000 -0.075000 -1.000000
v 0.000000 0.075000 -1.000000
v 0.098017 0.075000 -0.995185
v 0.195090 -0.075000 -0.980785
v 0.195090 0.075000 -0.980785
v 0.290285 -0.075000 -0.956940
v 0.290285 0.075000 -0.956940
v 0.382683 -0.075000 -0.923880
v 0.382683 0.075000 -0.923880
v 0.471397 0.075000 -0.881921
v 0.555570 0.075000 -0.831470
v 0.634393 -0.075000 -0.773010
v 0.634393 0.075000 -0.773010
v 0.707107 -0.075000 -0.707107
v 0.707107 0.075000 -0.707107
v 0.773010 -0.075000 -0.634393
v 0.773010 0.075000 -0.634393
v 0.831470 0.075000 -0.555570
v 0.881921 0.075000 -0.471397
v 0.923880 -0.075000 -0.382683
v 0.923880 0.075000 -0.382683
v 0.956940 0.075000 -0.290285
v 0.980785 0.075000 -0.195090
v 0.995185 -0.075000 -0.098017
v 0.995185 0.075000 -0.098017
v 1.000000 0.075000 0.000000
v 1.000000 -0.075000 0.000000
v -0.000003 0.075000 0.002313
v 0.098017 -0.075000 -0.995185
v 0.471397 -0.075000 -0.881921
v 0.555570 -0.075000 -0.831470
v 0.831470 -0.075000 -0.555570
v 0.881921 -0.075000 -0.471397
v 0.956940 -0.075000 -0.290285
v 0.980785 -0.075000 -0.195090
v -0.000003 -0.075000 0.000000
vn 0.0491 -0.0000 -0.9988
vn 0.1467 -0.0000 -0.9892
vn 0.2430 -0.0000 -0.9700
vn 0.3369 -0.0000 -0.9415
vn 0.4276 -0.0000 -0.9040
vn 0.5957 -0.0000 -0.8032
vn 0.6716 -0.0000 -0.7410
vn 0.7410 -0.0000 -0.6716
vn 0.8032 -0.0000 -0.5957
vn 0.9040 -0.0000 -0.4276
vn 0.9415 -0.0000 -0.3369
vn 0.9892 -0.0000 -0.1467
vn 0.9988 -0.0000 -0.0491
vn -0.0000 -1.0000 -0.0000
vn -1.0000 -0.0000 -0.0000
vn 0.0012 -0.0077 1.0000
vn 0.5141 -0.0000 -0.8577
vn 0.8577 -0.0000 -0.5141
vn 0.9700 -0.0000 -0.2430
vn -0.0000 1.0000 -0.0000
vt 1.000000 0.500000
vt 1.000000 1.000000
vt 0.984375 1.000000
vt 0.984375 0.500000
vt 0.968750 1.000000
vt 0.968750 0.500000
vt 0.953125 1.000000
vt 0.953125 0.500000
vt 0.937500 1.000000
vt 0.937500 0.500000
vt 0.921875 1.000000
vt 0.921875 0.500000
vt 0.906250 0.500000
vt 0.906250 1.000000
vt 0.890625 1.000000
vt 0.890625 0.500000
vt 0.875000 1.000000
vt 0.875000 0.500000
vt 0.859375 1.000000
vt 0.859375 0.500000
vt 0.843750 1.000000
vt 0.843750 0.500000
vt 0.828125 0.500000
vt 0.828125 1.000000
vt 0.812500 1.000000
vt 0.812500 0.500000
vt 0.796875 1.000000
vt 0.796875 0.500000
vt 0.781250 0.500000
vt 0.781250 1.000000
vt 0.765625 1.000000
vt 0.765625 0.500000
vt 0.750000 1.000000
vt 0.750000 0.500000
vt 0.273524 0.488844
vt 0.296822 0.485388
vt 0.319668 0.479666
vt 0.341844 0.471731
vt 0.363135 0.461661
vt 0.383337 0.449553
vt 0.402254 0.435522
vt 0.419706 0.419706
vt 0.435522 0.402254
vt 0.449553 0.383337
vt 0.461661 0.363135
vt 0.471731 0.341844
vt 0.479666 0.319668
vt 0.485388 0.296822
vt 0.488844 0.273524
vt 0.490000 0.250000
vt 0.249999 0.250000
vt 0.250000 0.490000
vt 0.000000 0.000000
s 0
f 1/1/1 2/2/1 3/3/1 29/4/1
f 29/4/2 3/3/2 5/5/2 4/6/2
f 4/6/3 5/5/3 7/7/3 6/8/3
f 6/8/4 7/7/4 9/9/4 8/10/4
f 8/10/5 9/9/5 10/11/5 30/12/5
f 31/13/6 11/14/6 13/15/6 12/16/6
f 12/16/7 13/15/7 15/17/7 14/18/7
f 14/18/8 15/17/8 17/19/8 16/20/8
f 16/20/9 17/19/9 18/21/9 32/22/9
f 33/23/10 19/24/10 21/25/10 20/26/10
f 20/26/11 21/25/11 22/27/11 34/28/11
f 35/29/12 23/30/12 25/31/12 24/32/12
f 24/32/13 25/31/13 26/33/13 27/34/13
f 29/35/14 4/36/14 6/37/14 8/38/14 30/39/14 31/40/14 12/41/14 14/42/14 16/43/14 32/44/14 33/45/14 20/46/14 34/47/14 35/48/14 24/49/14 27/50/14 36/51/14 1/52/14
f 2/53/15 1/53/15 36/53/15 28/53/15
f 28/53/16 36/53/16 27/53/16 26/53/16
f 11/14/17 31/14/17 30/11/17 10/11/17
f 19/24/18 33/24/18 32/21/18 18/21/18
f 23/30/19 35/30/19 34/27/19 22/27/19
f 3/3/20 2/53/20 28/53/20 26/33/20 25/31/20 23/30/20 22/27/20 21/25/20 19/24/20 18/21/20 17/19/20 15/17/20 13/15/20 11/14/20 10/11/20 9/9/20 7/7/20 5/5/20
